<?xml version="1.0" encoding="UTF-8" standalone="no"?>
<!DOCTYPE svg PUBLIC "-//W3C//DTD SVG 1.1//EN" "http://www.w3.org/Graphics/SVG/1.1/DTD/svg11.dtd">
<svg width="100%" height="100%" viewBox="0 0 2800 2800" version="1.1" xmlns="http://www.w3.org/2000/svg" xmlns:xlink="http://www.w3.org/1999/xlink" xml:space="preserve" xmlns:serif="http://www.serif.com/" style="fill-rule:evenodd;clip-rule:evenodd;stroke-linejoin:round;stroke-miterlimit:2;">
    <g transform="matrix(1,0,0,1,-100,-100)">
        <path d="M1500,100C2272.68,100 2900,727.319 2900,1500C2900,2272.68 2272.68,2900 1500,2900C727.319,2900 100,2272.68 100,1500C100,727.319 727.319,100 1500,100ZM1500,200C2217.49,200 2800,782.51 2800,1500C2800,2217.49 2217.49,2800 1500,2800C782.51,2800 200,2217.49 200,1500C200,782.51 782.51,200 1500,200Z" style="fill:rgb(136,136,136);fill-opacity:0.56;"/>
        <g id="Wrench" transform="matrix(1.26814,0,0,1.26814,-361.372,-408.537)">
            <g>
                <g transform="matrix(0.788555,0,0,0.788555,284.961,322.153)">
                    <path d="M1500,200C2217.49,200 2800,782.51 2800,1500C2800,2217.49 2217.49,2800 1500,2800C782.51,2800 200,2217.49 200,1500C200,782.51 782.51,200 1500,200ZM1861.53,2158.46C1872,2158.46 1881.62,2157.96 1890.38,2156.97C1899.13,2155.97 1907.39,2154.49 1915.16,2152.5C1922.92,2150.51 1930.23,2148.12 1937.09,2145.32C1943.95,2142.52 1950.82,2139.32 1957.68,2135.71L1957.68,2050.12L1897.55,2050.12C1894.12,2050.12 1891.37,2049.13 1889.29,2047.14C1887.22,2045.16 1886.18,2042.72 1886.18,2039.83L1886.18,2010.04L2005.34,2010.04L2005.34,2159C1995.59,2166.04 1985.44,2172.18 1974.88,2177.42C1964.31,2182.65 1953.03,2187.03 1941.02,2190.55C1929.01,2194.07 1916.15,2196.69 1902.43,2198.41C1888.7,2200.12 1873.81,2200.98 1857.74,2200.98C1829.57,2200.98 1803.75,2196.15 1780.28,2186.49C1756.81,2176.83 1736.59,2163.29 1719.62,2145.86C1702.64,2128.44 1689.42,2107.54 1679.94,2083.17C1670.46,2058.79 1665.72,2031.98 1665.72,2002.73C1665.72,1973.12 1670.37,1946.12 1679.67,1921.75C1688.97,1897.37 1702.24,1876.48 1719.48,1859.05C1736.72,1841.63 1757.58,1828.13 1782.04,1818.56C1806.51,1808.99 1833.91,1804.21 1864.24,1804.21C1879.59,1804.21 1893.85,1805.34 1907.03,1807.59C1920.21,1809.85 1932.44,1813.1 1943.73,1817.34C1955.01,1821.59 1965.44,1826.73 1975.01,1832.78C1984.58,1838.83 1993.52,1845.64 2001.82,1853.23L1986.93,1877.06C1983.86,1881.94 1979.89,1884.37 1975.01,1884.37C1972.12,1884.37 1968.96,1883.38 1965.53,1881.39C1961.02,1878.87 1955.96,1875.8 1950.37,1872.19C1944.77,1868.58 1937.95,1865.1 1929.92,1861.76C1921.88,1858.42 1912.4,1855.58 1901.48,1853.23C1890.56,1850.88 1877.6,1849.71 1862.62,1849.71C1840.77,1849.71 1821,1853.27 1803.3,1860.41C1785.61,1867.54 1770.53,1877.74 1758.07,1891.01C1745.62,1904.28 1736.05,1920.35 1729.37,1939.22C1722.68,1958.09 1719.34,1979.26 1719.34,2002.73C1719.34,2027.28 1722.82,2049.18 1729.77,2068.41C1736.72,2087.64 1746.52,2103.93 1759.16,2117.29C1771.8,2130.65 1786.78,2140.85 1804.12,2147.89C1821.45,2154.94 1840.59,2158.46 1861.53,2158.46ZM1616.7,2002.73C1616.7,2031.8 1612.09,2058.47 1602.89,2082.76C1593.68,2107.05 1580.68,2127.94 1563.89,2145.46C1547.09,2162.97 1526.92,2176.56 1503.36,2186.22C1479.79,2195.88 1453.75,2200.71 1425.22,2200.71C1396.69,2200.71 1370.69,2195.88 1347.22,2186.22C1323.75,2176.56 1303.62,2162.97 1286.82,2145.46C1270.03,2127.94 1257.03,2107.05 1247.82,2082.76C1238.62,2058.47 1234.01,2031.8 1234.01,2002.73C1234.01,1973.66 1238.62,1946.98 1247.82,1922.7C1257.03,1898.41 1270.03,1877.47 1286.82,1859.86C1303.62,1842.26 1323.75,1828.58 1347.22,1818.83C1370.69,1809.08 1396.69,1804.21 1425.22,1804.21C1453.75,1804.21 1479.79,1809.08 1503.36,1818.83C1526.92,1828.58 1547.09,1842.26 1563.89,1859.86C1580.68,1877.47 1593.68,1898.41 1602.89,1922.7C1612.09,1946.98 1616.7,1973.66 1616.7,2002.73ZM1052.01,2152.5L1219.93,2152.5L1219.93,2196.64L999.469,2196.64L999.469,1808.54L1052.01,1808.54L1052.01,2152.5ZM1562.8,2002.73C1562.8,1978.89 1559.55,1957.5 1553.05,1938.54C1546.55,1919.58 1537.34,1903.56 1525.43,1890.47C1513.51,1877.38 1499.07,1867.31 1482.09,1860.27C1465.12,1853.23 1446.16,1849.71 1425.22,1849.71C1404.45,1849.71 1385.59,1853.23 1368.62,1860.27C1351.64,1867.31 1337.15,1877.38 1325.15,1890.47C1313.14,1903.56 1303.89,1919.58 1297.39,1938.54C1290.89,1957.5 1287.64,1978.89 1287.64,2002.73C1287.64,2026.56 1290.89,2047.91 1297.39,2066.78C1303.89,2085.65 1313.14,2101.63 1325.15,2114.72C1337.15,2127.81 1351.64,2137.83 1368.62,2144.78C1385.59,2151.73 1404.45,2155.21 1425.22,2155.21C1446.16,2155.21 1465.12,2151.73 1482.09,2144.78C1499.07,2137.83 1513.51,2127.81 1525.43,2114.72C1537.34,2101.63 1546.55,2085.65 1553.05,2066.78C1559.55,2047.91 1562.8,2026.56 1562.8,2002.73ZM2227.27,1420.76L776.062,1420.76C776.062,1420.76 708.093,1411.95 686.309,1382.28C664.526,1352.61 637.279,1338.78 637.279,1338.78C637.279,1338.78 620.004,1325.43 565.524,1335.86C511.044,1346.29 461.569,1404.64 461.569,1404.64C461.569,1404.64 434.73,1439.06 428.309,1457.17C421.887,1475.28 439.528,1471.24 439.528,1471.24C439.528,1471.24 522.009,1449.93 545.074,1444.13C568.139,1438.33 581.337,1465.82 581.337,1465.82C581.337,1465.82 602.357,1498.6 606.151,1538.89C609.944,1579.19 569.863,1586.43 569.863,1586.43L474.635,1611.62C474.635,1611.62 464.923,1614.54 479.49,1625.7C494.058,1636.87 520.548,1645.86 520.548,1645.86C520.548,1645.86 661.725,1698.36 712.536,1625.04C741.346,1583.47 780.184,1570.25 808.421,1566.6L2224.26,1566.6C2237.24,1566.87 2253.97,1569.67 2270.56,1575.95C2288.48,1582.75 2303.82,1592.71 2313.73,1601.65C2341.25,1628.97 2379.13,1645.86 2420.92,1645.86C2504.91,1645.86 2573.1,1577.67 2573.1,1493.68C2573.1,1409.69 2504.91,1341.5 2420.92,1341.5C2378.79,1341.5 2340.64,1358.66 2313.07,1386.36C2303.24,1395.19 2288.18,1404.95 2270.6,1411.61C2255.24,1417.43 2239.75,1420.22 2227.27,1420.76ZM1240.65,1140.54C1256.72,1140.54 1271.07,1137.83 1283.71,1132.42C1296.35,1127 1307.05,1119.42 1315.8,1109.67C1324.56,1099.92 1331.24,1088.27 1335.84,1074.73C1340.45,1061.19 1342.75,1046.29 1342.75,1030.04L1342.75,794.146L1395.02,794.146L1395.02,1030.04C1395.02,1052.43 1391.45,1073.19 1384.32,1092.33C1377.19,1111.47 1366.99,1128.04 1353.72,1142.03C1340.45,1156.03 1324.24,1166.99 1305.11,1174.94C1285.97,1182.88 1264.48,1186.86 1240.65,1186.86C1216.81,1186.86 1195.33,1182.88 1176.19,1174.94C1157.05,1166.99 1140.8,1156.03 1127.44,1142.03C1114.08,1128.04 1103.83,1111.47 1096.7,1092.33C1089.57,1073.19 1086,1052.43 1086,1030.04L1086,794.146L1138.27,794.146L1138.27,1029.77C1138.27,1046.02 1140.57,1060.92 1145.18,1074.46C1149.78,1088 1156.46,1099.65 1165.22,1109.4C1173.98,1119.15 1184.72,1126.78 1197.45,1132.28C1210.18,1137.79 1224.58,1140.54 1240.65,1140.54ZM1547.5,1182.25L1494.96,1182.25L1494.96,794.146L1547.5,794.146L1547.5,1182.25ZM1704.04,1138.11L1871.96,1138.11L1871.96,1182.25L1651.5,1182.25L1651.5,794.146L1704.04,794.146L1704.04,1138.11ZM739.334,1182.25L739.334,794.146L863.105,794.146C886.938,794.146 907.476,796.494 924.719,801.188C941.962,805.882 956.136,812.563 967.24,821.23C978.344,829.896 986.56,840.504 991.886,853.053C997.212,865.601 999.876,879.73 999.876,895.438C999.876,905.007 998.386,914.216 995.407,923.063C992.428,931.91 987.914,940.126 981.865,947.709C975.817,955.292 968.233,962.063 959.115,968.021C949.997,973.98 939.299,978.855 927.021,982.646C955.369,988.244 976.764,998.445 991.209,1013.25C1005.65,1028.06 1012.88,1047.56 1012.88,1071.75C1012.88,1088.18 1009.85,1103.17 1003.8,1116.71C997.754,1130.25 988.907,1141.9 977.261,1151.65C965.615,1161.4 951.351,1168.93 934.469,1174.26C917.587,1179.59 898.313,1182.25 876.646,1182.25L739.334,1182.25ZM2266.29,988.334C2266.29,1017.4 2261.69,1043.86 2252.48,1067.69C2243.27,1091.52 2230.27,1111.92 2213.48,1128.9C2196.69,1145.87 2176.56,1159 2153.08,1168.3C2129.61,1177.6 2103.61,1182.25 2075.08,1182.25L1929.92,1182.25L1929.92,794.146L2075.08,794.146C2103.61,794.146 2129.61,798.796 2153.08,808.094C2176.56,817.393 2196.69,830.573 2213.48,847.636C2230.27,864.698 2243.27,885.146 2252.48,908.98C2261.69,932.813 2266.29,959.264 2266.29,988.334ZM791.876,1005.4L791.876,1140.54L875.834,1140.54C890.82,1140.54 903.685,1138.83 914.428,1135.4C925.171,1131.97 934.018,1127.14 940.969,1120.91C947.921,1114.68 953.021,1107.28 956.271,1098.7C959.521,1090.12 961.146,1080.69 961.146,1070.4C961.146,1050.36 954.06,1034.51 939.886,1022.87C925.712,1011.22 904.271,1005.4 875.563,1005.4L791.876,1005.4ZM2212.4,988.334C2212.4,964.501 2209.15,943.195 2202.65,924.417C2196.15,905.639 2186.94,889.751 2175.02,876.751C2163.11,863.751 2148.66,853.82 2131.69,846.959C2114.72,840.098 2095.85,836.667 2075.08,836.667L1982.73,836.667L1982.73,1139.73L2075.08,1139.73C2095.85,1139.73 2114.72,1136.3 2131.69,1129.44C2148.66,1122.58 2163.11,1112.69 2175.02,1099.78C2186.94,1086.87 2196.15,1071.03 2202.65,1052.25C2209.15,1033.47 2212.4,1012.17 2212.4,988.334ZM791.876,968.021L861.209,968.021C876.014,968.021 888.834,966.396 899.667,963.146C910.501,959.896 919.483,955.382 926.615,949.605C933.747,943.827 939.028,936.83 942.459,928.615C945.889,920.4 947.605,911.417 947.605,901.667C947.605,878.917 940.744,862.216 927.021,851.563C913.299,840.91 891.994,835.584 863.105,835.584L791.876,835.584L791.876,968.021Z" style="fill:rgb(16,16,16);"/>
                </g>
                <g transform="matrix(0.582282,0,0,0.62227,887.224,645.45)">
                    <path d="M2244.21,1246.56L2361.49,1309.92L2361.49,1436.64L2244.21,1500L2126.93,1436.64L2126.93,1309.92L2244.21,1246.56Z" style="fill:rgb(16,16,16);"/>
                </g>
                <g transform="matrix(1,0,0,1,-24.4244,-13.1019)">
                    <path d="M1993.8,1513.1C1993.8,1505.61 1987.71,1499.52 1980.22,1499.52L1004.22,1499.52C996.723,1499.52 990.637,1505.61 990.637,1513.1C990.637,1520.6 996.723,1526.68 1004.22,1526.68L1980.22,1526.68C1987.71,1526.68 1993.8,1520.6 1993.8,1513.1Z" style="fill:rgb(16,16,16);"/>
                </g>
            </g>
        </g>
    </g>
</svg>
