<?xml version="1.0" standalone="no"?>
<!DOCTYPE svg PUBLIC "-//W3C//DTD SVG 20010904//EN"
 "http://www.w3.org/TR/2001/REC-SVG-20010904/DTD/svg10.dtd">
<svg version="1.0" xmlns="http://www.w3.org/2000/svg"
 width="700.000000pt" height="700.000000pt" viewBox="0 0 700.000000 700.000000"
 preserveAspectRatio="xMidYMid meet">
<metadata>
Created by potrace 1.11, written by Peter Selinger 2001-2013
</metadata>
<g transform="translate(0.000000,700.000000) scale(0.100000,-0.100000)"
fill="#000000" stroke="none">
<path d="M3575 6991 c-14 -24 -5 -76 65 -356 48 -196 70 -302 67 -327 -9 -69
-67 -124 -199 -190 -151 -75 -311 -105 -392 -74 -49 19 -101 71 -122 123 -12
28 -116 422 -128 486 -9 45 -31 101 -43 104 -33 11 -109 -122 -162 -284 -61
-187 -91 -374 -86 -543 7 -220 59 -353 181 -456 165 -139 232 -230 283 -382
21 -62 21 -68 21 -1666 1 -1543 0 -1607 -18 -1658 -27 -78 -64 -130 -128 -184
-165 -139 -254 -263 -309 -427 -86 -259 -59 -499 85 -752 38 -66 170 -205 240
-252 99 -67 235 -123 342 -141 54 -9 228 -9 288 0 165 25 359 130 480 261 271
295 313 728 102 1067 -25 41 -89 118 -142 171 -52 53 -105 116 -117 140 -52
107 -50 15 -48 1844 l1 1700 32 108 c50 167 80 218 193 326 95 90 176 194 198
254 28 73 33 174 15 303 -28 200 -107 350 -293 554 -65 71 -167 152 -276 218
-56 34 -119 50 -130 33z m-93 -1968 c17 -15 18 -76 18 -1524 0 -1357 -2 -1509
-16 -1523 -20 -21 -58 -20 -75 0 -20 25 -20 3023 0 3048 17 21 49 21 73 -1z
m267 -3739 c28 -47 51 -87 51 -89 0 -2 41 -74 90 -160 50 -86 90 -159 90 -162
0 -3 -30 -58 -67 -122 -37 -64 -74 -129 -82 -144 -9 -16 -20 -36 -26 -45 -5
-10 -32 -55 -58 -102 l-48 -85 -277 2 c-152 0 -280 2 -284 2 -8 1 -281 481
-281 495 0 6 62 120 138 254 l139 242 282 0 283 0 50 -86z"/>
<path d="M2 3503 l3 -1848 700 0 c385 0 730 4 767 8 84 10 248 49 319 77 309
121 518 337 619 638 16 48 31 98 33 112 23 126 27 166 28 280 1 283 -89 487
-279 634 -62 47 -221 127 -291 146 l-44 12 92 48 c201 107 322 240 398 438 70
184 65 484 -13 707 -106 303 -407 516 -809 570 -143 20 -259 23 -858 24 l-667
1 2 -1847z m1338 1193 c225 -43 312 -164 314 -436 0 -102 -4 -138 -22 -195
-43 -135 -118 -205 -265 -246 -75 -20 -106 -22 -354 -24 l-273 -2 0 452 c0
248 2 454 5 456 7 8 555 3 595 -5z m139 -1504 c128 -42 208 -121 242 -237 15
-54 19 -262 6 -330 -29 -154 -172 -290 -329 -313 -32 -5 -193 -9 -358 -10
l-300 0 0 460 0 460 338 -4 c309 -4 342 -6 401 -26z"/>
<path d="M4529 5318 c-1 -43 -1 -3628 0 -3650 1 -15 93 -16 1236 -16 l1235 0
0 342 0 343 -756 -1 c-416 -1 -758 2 -760 6 -3 4 -5 683 -5 1508 l0 1500 -475
0 -474 0 -1 -32z"/>
</g>
</svg>
