<?xml version="1.0" encoding="UTF-8" standalone="no"?>
<!DOCTYPE svg PUBLIC "-//W3C//DTD SVG 1.1//EN" "http://www.w3.org/Graphics/SVG/1.1/DTD/svg11.dtd">
<svg width="100%" height="100%" viewBox="0 0 742 3000" version="1.1" xmlns="http://www.w3.org/2000/svg" xmlns:xlink="http://www.w3.org/1999/xlink" xml:space="preserve" xmlns:serif="http://www.serif.com/" style="fill-rule:evenodd;clip-rule:evenodd;stroke-linejoin:round;stroke-miterlimit:2;">
    <g transform="matrix(1,0,0,1,-1095.27,-1.8181e-12)">
        <g transform="matrix(1.1426,5.22264e-18,4.92611e-18,1.15817,-365.655,-237.259)">
            <path d="M1468.36,938.997C1456.58,886.863 1427.69,824.601 1360.43,776.381C1218.61,674.714 1320.17,392.233 1320.17,392.233C1320.17,392.233 1337.54,339.229 1359.15,310.081C1380.75,280.933 1386.38,300.365 1386.38,300.365L1435.12,490.906C1435.12,490.906 1449.12,571.105 1527.06,563.515C1605,555.924 1668.39,513.866 1668.39,513.866C1668.39,513.866 1721.57,487.458 1710.35,441.307C1699.14,395.156 1657.91,230.12 1657.91,230.12C1657.91,230.12 1650.1,194.823 1685.13,207.672C1720.16,220.52 1786.72,274.221 1786.72,274.221C1786.72,274.221 1899.59,373.215 1919.77,482.225C1939.95,591.234 1914.12,625.8 1914.12,625.8C1914.12,625.8 1887.38,680.317 1829.98,723.904C1784.14,758.717 1764.05,852.481 1757.81,888.815L1757.81,2122.77C1759.07,2135.89 1762.2,2150.69 1767.75,2165.33C1775.86,2186.75 1788.09,2204.99 1799.33,2216.88C1875.49,2275.98 1924.55,2368.39 1924.55,2472.17C1924.55,2650.43 1779.83,2795.14 1601.58,2795.14C1423.32,2795.14 1278.61,2650.43 1278.61,2472.17C1278.61,2360.09 1335.83,2261.26 1422.63,2203.33L1422.48,2203.28C1435.67,2191.06 1450.16,2171.2 1459.18,2147.38C1464.07,2134.49 1466.99,2121.41 1468.36,2109.28L1468.36,938.997ZM1813.81,2472.17L1707.69,2655.97L1495.46,2655.97L1389.34,2472.17L1495.46,2288.37L1707.69,2288.37L1813.81,2472.17ZM1613.09,929.396C1602.38,929.396 1593.69,938.087 1593.69,948.791L1593.69,2051.21C1593.69,2061.91 1602.38,2070.6 1613.09,2070.6C1623.79,2070.6 1632.48,2061.91 1632.48,2051.21L1632.48,948.791C1632.48,938.17 1623.93,929.532 1613.34,929.398L1613.09,929.396Z" style="fill:rgb(16,16,16);"/>
        </g>
    </g>
</svg>
